<svg id="HTML_BG" data-name="HTML BG" xmlns="http://www.w3.org/2000/svg" xmlns:xlink="http://www.w3.org/1999/xlink" viewBox="0 0 750 1334"><defs><style>.cls-1{fill:url(#linear-gradient);}.cls-2,.cls-3,.cls-4{fill:#fff;}.cls-2{opacity:0.08;}.cls-3{opacity:0.05;}.cls-4{opacity:0.11;}</style><linearGradient id="linear-gradient" x1="375" y1="-367.97" x2="375" y2="1413.71" gradientUnits="userSpaceOnUse"><stop offset="0.23" stop-color="#1e9cd7"/><stop offset="0.26" stop-color="#3998d4"/><stop offset="0.3" stop-color="#5b93d1"/><stop offset="0.34" stop-color="#788fcf"/><stop offset="0.38" stop-color="#8e8ccd"/><stop offset="0.43" stop-color="#9d8acb"/><stop offset="0.48" stop-color="#a688ca"/><stop offset="0.56" stop-color="#a988ca"/><stop offset="0.61" stop-color="#9f87c9"/><stop offset="0.7" stop-color="#8284c7"/><stop offset="0.82" stop-color="#557fc4"/><stop offset="0.96" stop-color="#1678c0"/><stop offset="1" stop-color="#0075be"/></linearGradient></defs><title>Artboard 64 copy</title><rect class="cls-1" width="750" height="1334"/><g id="BG_BUBBLES" data-name="BG BUBBLES"><circle class="cls-2" cx="138.3" cy="210.11" r="95.5" transform="translate(-72.04 348.06) rotate(-89.9)"/><circle class="cls-2" cx="235.41" cy="443.78" r="45" transform="translate(-208.76 678.44) rotate(-89.9)"/><circle class="cls-3" cx="538.07" cy="350.78" r="124.5" transform="translate(186.38 888.26) rotate(-89.9)"/><circle class="cls-2" cx="430.86" cy="772.1" r="67" transform="translate(-341.97 1201.67) rotate(-89.9)"/><circle class="cls-2" cx="492.07" cy="942.71" r="21.5" transform="translate(-451.46 1433.2) rotate(-89.9)"/><circle class="cls-4" cx="683.8" cy="1103.03" r="10.5" transform="translate(-420.37 1784.98) rotate(-89.9)"/><circle class="cls-3" cx="198.08" cy="1234.71" r="27" transform="translate(-1036.96 1430.72) rotate(-89.9)"/><circle class="cls-3" cx="243.5" cy="871.5" r="99.5" transform="translate(-628.41 1113.53) rotate(-89.9)"/><circle class="cls-3" cx="50.5" cy="594.5" r="22.5" transform="translate(-544.08 644) rotate(-89.9)"/><circle class="cls-3" cx="497.5" cy="644.5" r="22.5" transform="translate(-147.83 1140.92) rotate(-89.9)"/><circle class="cls-3" cx="354" cy="599" r="11" transform="translate(-245.59 951.99) rotate(-89.9)"/><circle class="cls-3" cx="634.5" cy="604.5" r="16.5" transform="translate(28.94 1237.98) rotate(-89.9)"/><circle class="cls-3" cx="405.5" cy="116.5" r="14.5" transform="translate(288.32 521.8) rotate(-89.9)"/><circle class="cls-3" cx="658" cy="205" r="24" transform="translate(451.89 862.65) rotate(-89.9)"/></g></svg>