<?xml version="1.0" encoding="utf-8"?>
<!-- Generator: Adobe Illustrator 18.1.1, SVG Export Plug-In . SVG Version: 6.00 Build 0)  -->
<svg version="1.1" id="Layer_1" xmlns="http://www.w3.org/2000/svg" xmlns:xlink="http://www.w3.org/1999/xlink" x="0px" y="0px"
	 viewBox="-4 0 330.3 329.4" enable-background="new -4 0 330.3 329.4" xml:space="preserve">
<g>
	<path fill="#B2B2B2" d="M178.7,86.4v48.6l27.7-23.6c0,0,0,0,0.7-0.7c0,0,0,0-0.7,0L178.7,86.4z"/>
	<path fill="#B2B2B2" d="M178.7,241.8l27.7-23.6c0,0,0,0,0.7-0.7c0,0,0,0-0.7,0l-27.7-23.6V241.8z"/>
	<path fill="#B2B2B2" d="M161.1,2C72,2-1,75-1,164.1s73,162.1,162.1,162.1s162.1-73,162.1-162.1S250.3,2,161.1,2z M224,196.6
		c6.1,5.4,10.1,12.8,10.1,20.9s-3.4,15.5-10.1,20.9l-50,43.2c-2.7,2-5.4,3.4-8.8,3.4c-2,0-4.1-0.7-5.4-1.4c-4.7-2-8.1-6.8-8.1-12.2
		v-78.4l-41.2,35.1c-2.7,2-5.4,3.4-8.8,3.4c-4.1,0-7.4-1.4-10.1-4.7c-4.7-5.4-4.1-14.2,1.4-18.9l51.3-43.2l-51.3-43.2
		c-5.4-4.7-6.1-13.5-1.4-18.9c4.7-5.4,13.5-6.1,18.9-1.4l41.2,35.1V56.7c0-5.4,3.4-10.1,8.1-12.2c4.7-2,10.1-1.4,14.2,2l50,43.2
		c6.1,5.4,10.1,12.8,10.1,20.9s-3.4,15.5-10.1,20.9l-37.8,32.4L224,196.6z"/>
</g>
</svg>
